<svg width="227" height="227" viewBox="0 0 227 227" fill="none" xmlns="http://www.w3.org/2000/svg">
<rect width="227" height="227" rx="113.5" fill="#3F51B5"/>
<path fill-rule="evenodd" clip-rule="evenodd" d="M122.299 183.493C137.67 168.152 168.943 131.774 168.943 89.7521C168.943 61.7225 144.331 39 113.971 39C83.6115 39 59 61.7225 59 89.7521C59 131.774 90.2734 168.152 105.644 183.493C110.329 188.169 117.614 188.169 122.299 183.493ZM113.971 122.049C127.254 122.049 138.021 111.204 138.021 97.8263C138.021 84.4485 127.254 73.6037 113.971 73.6037C100.689 73.6037 89.9214 84.4485 89.9214 97.8263C89.9214 111.204 100.689 122.049 113.971 122.049Z" fill="#FF4081"/>
</svg>
