<svg width="158" height="158" viewBox="0 0 158 158" fill="none" xmlns="http://www.w3.org/2000/svg">
<path d="M138.029 30.4147C139.544 30.4147 140.772 29.1866 140.772 27.6718C140.772 26.157 139.544 24.929 138.029 24.929C136.515 24.929 135.287 26.157 135.287 27.6718C135.287 29.1866 136.515 30.4147 138.029 30.4147Z" fill="#3F51B5"/>
<path d="M19.9738 114.676C21.4886 114.676 22.7166 113.448 22.7166 111.933C22.7166 110.418 21.4886 109.19 19.9738 109.19C18.4589 109.19 17.2309 110.418 17.2309 111.933C17.2309 113.448 18.4589 114.676 19.9738 114.676Z" fill="#3F51B5"/>
<path d="M156.714 18.4868C154.885 13.331 150.249 7.08667 138.633 6.35338C138.621 6.35085 138.608 6.35338 138.595 6.35085C138.466 6.34323 138.349 6.32547 138.222 6.3204C138.156 6.31786 138.09 6.32801 138.024 6.32801C137.961 6.32801 137.9 6.31786 137.837 6.3204C137.717 6.32547 137.611 6.3407 137.494 6.34831C137.471 6.35085 137.448 6.35085 137.428 6.35338C125.807 7.08413 121.172 13.3335 119.342 18.4893C114.681 31.6123 123.511 52.4917 132.709 62.9987C125.241 68.0277 102.35 71.9148 85.0911 74.8403C53.3469 80.2194 36.7833 83.4621 36.7833 92.8324C36.7833 102.203 51.9311 105.247 78.7047 109.815C91.2745 111.961 112.22 115.536 114.227 119.175C111.246 123.531 84.1523 127.961 67.8704 130.62C52.7785 133.089 40.7542 135.144 32.0335 137.519C38.1103 126.617 42.1294 112.524 38.6609 102.748C36.8087 97.5289 32.0969 91.1831 20.1665 90.5767C20.1006 90.5742 20.0371 90.5869 19.9712 90.5869C19.9077 90.5869 19.8443 90.5742 19.7809 90.5767C7.84791 91.1831 3.13614 97.5315 1.2839 102.751C-3.84145 117.196 7.36836 141.079 17.4288 150.135C17.4542 150.158 17.4871 150.165 17.515 150.188C17.5785 150.241 17.6318 150.307 17.7028 150.358C17.7079 150.363 17.718 150.363 17.7231 150.368C17.9895 150.566 18.2788 150.718 18.5807 150.838C18.6264 150.855 18.6695 150.868 18.7152 150.886C18.7862 150.911 18.8573 150.929 18.9283 150.947C19.2683 151.043 19.6134 151.109 19.9661 151.112C19.9661 151.112 19.9686 151.112 19.9712 151.112H19.9737C20.2477 151.112 20.5192 151.076 20.7882 151.018C20.8744 150.998 20.9556 150.965 21.0419 150.937C21.0901 150.924 21.1383 150.909 21.1865 150.891C21.2474 150.871 21.3083 150.855 21.3667 150.835C21.4352 150.807 21.5037 150.782 21.5697 150.751C21.6737 150.701 21.7676 150.637 21.8691 150.581C22.0111 150.5 22.1482 150.419 22.2801 150.318C22.341 150.269 22.4044 150.224 22.4628 150.168C22.478 150.155 22.4983 150.153 22.5135 150.137C23.0007 149.698 23.4904 149.199 23.9801 148.694C29.6332 144.591 52.2584 140.889 69.0908 138.138C102.812 132.627 121.89 129.035 121.89 119.294C121.89 109.926 106.744 106.884 79.9784 102.317C67.4061 100.17 46.4555 96.5952 44.446 92.9516C47.2244 88.9807 70.7223 84.9972 86.3572 82.3482C116.379 77.2635 135.2 73.5412 140.838 65.6198C150.83 56.3814 161.799 32.8023 156.714 18.4868ZM19.9737 122.288C14.2622 122.288 9.61642 117.642 9.61642 111.931C9.61642 106.222 14.2622 101.578 19.9737 101.578C25.6826 101.578 30.3259 106.222 30.3259 111.931C30.3259 117.642 25.6826 122.288 19.9737 122.288ZM138.029 38.0266C132.318 38.0266 127.672 33.3808 127.672 27.6718C127.672 21.9629 132.318 17.3171 138.029 17.3171C143.738 17.3171 148.382 21.9629 148.382 27.6718C148.382 33.3808 143.738 38.0266 138.029 38.0266Z" fill="#3F51B5"/>
</svg>
